<?xml version="1.0" encoding="utf-8"?>
<!-- Generator: Adobe Illustrator 19.2.0, SVG Export Plug-In . SVG Version: 6.00 Build 0)  -->
<svg version="1.1" id="Layer_1" xmlns="http://www.w3.org/2000/svg" xmlns:xlink="http://www.w3.org/1999/xlink" x="0px" y="0px"
	 viewBox="0 0 53.8 71.5" enable-background="new 0 0 53.8 71.5" xml:space="preserve">
<path d="M51.6,11L51.6,11C48.9,9.5,35.1,2.1,31.7,0.7C30.3,0.2,28.8,0,27.2,0c-2.6,0-4.7,0.6-5.2,0.8v0L1.1,7.5
	L1,7.5C0.5,7.8-0.2,8.5,0,9.3c0.2,0.8,1,1.1,1.5,1.1l0.1,0l21.1-6.7c0.1,0,2.2-0.6,4.5-0.6c1.4,0,2.5,0.2,3.4,0.6
	c2.6,1.1,11.8,5.9,16.7,8.6c1.2,0.6,2.2,1.2,2.9,1.5c0,0,0.8,0.5,0.6,1c-0.2,0.5-0.4,0.6-0.8,0.6c-0.3,0-0.6-0.1-1.1-0.2L37.1,11
	c-1.2-0.5-2.1-0.5-3.5-0.5H21c-0.9,0-1.6,0.7-1.6,1.5c0,0.8,0.7,1.5,1.6,1.5h0h12.6h0c0.1,0,0.3,0,0.4,0c0.5,0,0.8,0,0.9,0.2L35,14
	l0.2,0l0,0.1c0,0,0,0.1,0,0.1c0,0.3,0,0.6,0,0.7c-0.1,0.8-0.9,1.6-1.7,1.6h-8.7c-0.1,0-0.1-0.1-0.2-0.1c-0.2-0.1-0.7-0.2-1.1,0.2
	c-1.2,1.8-4.1,3.8-10.6,3.8c0,0-0.1,0-0.1,0h-0.2c-1.7,0-9-1-10.6-1.4v-0.1l-0.5,0c-0.4,0-1.3,0.3-1.4,1.2c-0.1,0.9,0.7,1.4,1.3,1.6
	l0,0c0.5,0.2,1.7,0.5,4.7,1c1.8,0.3,5.1,0.9,6.5,0.9c5.8,0,10.1-1.4,13-4.3h7.9h0c2.1,0,4.1-1.5,4.7-3.6c0.1-0.2,0.2-0.4,0.2-0.7
	l0-0.1c0-0.1,0-0.1,0-0.2l9.4,3.2c2.8,0.8,4.8,0.1,5.8-2.2C54.5,13.7,52.9,11.7,51.6,11z M21,11.5c-0.1,0-0.1,0-0.2,0
	C20.9,11.6,20.9,11.5,21,11.5L21,11.5z"/>
<g enable-background="new    ">
	<path d="M46.8,47c1,0.7,1.8,1.6,2.3,2.6c0.5,1.1,0.8,2.3,0.8,3.7v7.6c0,1-0.3,1.9-0.9,2.6c-0.6,0.8-1.3,1.3-2.2,1.6
		v3.3c0,0.8-0.3,1.5-0.9,2.1c-0.6,0.6-1.3,0.9-2.2,0.9h-3c-0.8,0-1.5-0.3-2.1-0.9c-0.6-0.6-0.9-1.3-0.9-2.1v-3H13.6v3
		c0,0.8-0.3,1.5-0.9,2.1c-0.6,0.6-1.3,0.9-2.1,0.9h-3c-0.8,0-1.6-0.3-2.2-0.9c-0.6-0.6-0.9-1.3-0.9-2.1v-3.3
		c-0.9-0.3-1.6-0.9-2.2-1.6c-0.6-0.8-0.9-1.7-0.9-2.6v-7.6c0-1.4,0.3-2.6,0.8-3.7c0.5-1.1,1.3-1.9,2.3-2.6c0.1-0.6,0.3-1.5,0.5-2.6
		c0.2-1.1,0.4-2.3,0.7-3.5c0.3-1.2,0.6-2.4,0.9-3.6c0.3-1.2,0.7-2.1,1-2.8c0.5-0.9,1.3-1.7,2.5-2.4c1.2-0.7,2.7-1.3,4.6-1.8
		c0.8-0.2,1.6-0.4,2.4-0.5c0.9-0.1,1.7-0.3,2.7-0.4c0.9-0.1,1.9-0.2,2.9-0.2c1,0,2-0.1,3-0.1s2,0,3,0.1c1,0,1.9,0.1,2.9,0.2
		c0.9,0.1,1.8,0.2,2.7,0.4c0.9,0.1,1.7,0.3,2.4,0.5c1.9,0.5,3.4,1.1,4.6,1.8c1.2,0.7,2,1.5,2.5,2.4c0.4,0.7,0.7,1.6,1,2.8
		c0.3,1.2,0.6,2.4,0.9,3.6s0.5,2.4,0.7,3.5C46.5,45.6,46.7,46.4,46.8,47z M46.9,60.9v-7.6c0-1.4-0.4-2.5-1.2-3.3s-2.1-1.4-3.9-1.8
		c-0.9-0.2-2-0.4-3.2-0.5s-2.5-0.2-3.8-0.3c-1.4-0.1-2.8-0.1-4.3-0.1c-1.5,0-3.1,0-4.8,0s-3.2,0-4.8,0c-1.5,0-3,0-4.3,0.1
		c-1.4,0.1-2.6,0.1-3.8,0.3s-2.2,0.3-3.2,0.5c-1.8,0.4-3.1,1-3.9,1.8S4.5,52,4.5,53.4v7.6c0,0.4,0.1,0.8,0.4,1.1
		c0.3,0.3,0.6,0.4,1.1,0.4h39.3c0.4,0,0.8-0.1,1.1-0.4C46.7,61.7,46.9,61.3,46.9,60.9z M12.1,59.4c1.3,0,2.3-0.4,3.2-1.3
		s1.3-2,1.3-3.2c0-1.2-0.4-2.3-1.3-3.2s-2-1.3-3.2-1.3c-1.2,0-2.3,0.4-3.2,1.3s-1.3,1.9-1.3,3.2c0,1.3,0.4,2.3,1.3,3.2
		S10.8,59.4,12.1,59.4z M10.6,68.5v-3h-3v3H10.6z M10.4,35.9c-0.2,0.5-0.4,1.1-0.7,1.8c-0.2,0.7-0.4,1.6-0.7,2.5s-0.4,1.8-0.6,2.7
		c-0.2,0.9-0.4,1.8-0.5,2.6c0.2,0,0.3-0.1,0.5-0.1c0.1,0,0.3-0.1,0.5-0.1c0.7-0.2,1.4-0.3,2.2-0.4c0.8-0.1,1.6-0.2,2.5-0.3
		c0.9-0.1,1.8-0.1,2.7-0.2c0.9,0,1.9-0.1,3-0.1l-5-3.3c-0.3-0.2-0.5-0.6-0.6-1c-0.1-0.4,0-0.8,0.2-1.1c0.2-0.4,0.6-0.6,1-0.6
		c0.4-0.1,0.8,0,1.1,0.2l8.7,5.8c0.2,0,0.4,0,0.5,0c0.2,0,0.4,0,0.5,0c1.5,0,2.9,0,4.4,0c1.4,0,2.8,0,4,0.1L29.4,41
		c-0.3-0.3-0.5-0.6-0.6-1c-0.1-0.4,0-0.8,0.3-1.1c0.2-0.3,0.6-0.5,1-0.6c0.4-0.1,0.8,0,1.1,0.3l8.8,6.3c0.5,0.1,0.9,0.1,1.4,0.2
		c0.4,0.1,0.9,0.2,1.3,0.3c0.2,0,0.3,0.1,0.5,0.1c0.1,0,0.3,0.1,0.5,0.1c-0.2-0.8-0.3-1.7-0.5-2.6c-0.2-0.9-0.4-1.9-0.6-2.7
		c-0.2-0.9-0.4-1.7-0.7-2.5c-0.2-0.7-0.4-1.3-0.7-1.8c-0.2-0.4-0.7-0.9-1.5-1.3c-0.8-0.4-1.9-0.8-3.2-1.2c-1.3-0.4-2.9-0.6-4.6-0.9
		c-1.8-0.2-3.8-0.3-6-0.3s-4.2,0.1-6,0.3c-1.8,0.2-3.3,0.5-4.6,0.9c-1.3,0.4-2.4,0.8-3.2,1.2C11.1,35,10.6,35.4,10.4,35.9z
		 M12.1,53.4c0.4,0,0.8,0.1,1.1,0.4c0.3,0.3,0.4,0.6,0.4,1.1s-0.1,0.8-0.4,1.1c-0.3,0.3-0.6,0.4-1.1,0.4c-0.4,0-0.8-0.1-1.1-0.4
		c-0.3-0.3-0.4-0.6-0.4-1.1s0.1-0.8,0.4-1.1C11.3,53.5,11.7,53.4,12.1,53.4z M39.3,59.4c1.2,0,2.3-0.4,3.2-1.3s1.3-2,1.3-3.2
		c0-1.2-0.4-2.3-1.3-3.2s-1.9-1.3-3.2-1.3c-1.3,0-2.3,0.4-3.2,1.3s-1.3,1.9-1.3,3.2c0,1.3,0.4,2.3,1.3,3.2S38.1,59.4,39.3,59.4z
		 M39.3,53.4c0.4,0,0.8,0.1,1.1,0.4c0.3,0.3,0.4,0.6,0.4,1.1s-0.1,0.8-0.4,1.1c-0.3,0.3-0.6,0.4-1.1,0.4c-0.4,0-0.8-0.1-1.1-0.4
		c-0.3-0.3-0.4-0.6-0.4-1.1s0.1-0.8,0.4-1.1C38.5,53.5,38.9,53.4,39.3,53.4z M40.8,68.5h3v-3h-3V68.5z"/>
</g>
</svg>
