<?xml version="1.0" encoding="utf-8"?>
<!-- Generator: Adobe Illustrator 19.2.0, SVG Export Plug-In . SVG Version: 6.00 Build 0)  -->
<svg version="1.1" id="Layer_1" xmlns="http://www.w3.org/2000/svg" xmlns:xlink="http://www.w3.org/1999/xlink" x="0px" y="0px"
	 viewBox="0 0 64.6 92.4" enable-background="new 0 0 64.6 92.4" xml:space="preserve">
<g>
	<path d="M64.6,62.9c0-0.1,0-0.4-0.1-1.1c-0.1-0.7-0.2-1.5-0.5-2.6c-0.3-1-0.7-2.2-1.2-3.5c-0.6-1.3-1.4-2.7-2.4-4
		c-0.6-0.8-1.3-1.6-2-2.3c-0.7-0.7-1.5-1.4-2.3-2c-0.8-0.6-1.7-1.2-2.6-1.8c-0.9-0.5-1.9-1-2.9-1.5c-1.2-0.6-2.6-1-4-1.5
		c-1.4-0.4-2.9-0.8-4.4-1c-1.5-0.3-3.1-0.5-4.8-0.6c-1.7-0.1-3.4-0.2-5.2-0.2c-1.8,0-3.6,0.1-5.2,0.2c-1.7,0.1-3.3,0.4-4.8,0.6
		c-1.5,0.3-3,0.6-4.4,1c-1.4,0.4-2.7,0.9-4,1.5c-1,0.4-2,0.9-2.9,1.5c-0.9,0.5-1.8,1.1-2.6,1.8c-0.8,0.6-1.6,1.3-2.3,2
		c-0.7,0.7-1.4,1.5-2,2.3c-1,1.4-1.8,2.7-2.4,4c-0.6,1.3-1,2.5-1.2,3.5c-0.3,1-0.4,1.9-0.5,2.6c0,0.7-0.1,1-0.1,1.1
		c0,1.4,0.5,2.6,1.5,3.6S3.7,68,5.1,68h0v-3.4h0c-0.5,0-0.9-0.2-1.2-0.5s-0.5-0.7-0.5-1.2c0,0,0-0.3,0.1-0.8c0-0.5,0.2-1.3,0.4-2.1
		c0.2-0.9,0.6-1.9,1.1-3c0.5-1.1,1.2-2.2,2.1-3.4c1.2-1.5,2.6-2.9,4.3-4.1c1.7-1.2,3.6-2.2,5.7-2.9c2.1-0.8,4.5-1.4,7-1.8
		c2.6-0.4,5.3-0.6,8.3-0.6c3,0,5.7,0.2,8.3,0.6s4.9,1,7,1.8c2.1,0.8,4,1.8,5.7,2.9c1.7,1.2,3.1,2.5,4.3,4.1c0.9,1.2,1.6,2.3,2,3.4
		c0.5,1.1,0.8,2.1,1.1,3c0.2,0.9,0.4,1.6,0.4,2.1c0,0.5,0.1,0.8,0.1,0.8c0,0.5-0.2,0.9-0.5,1.2c-0.3,0.3-0.7,0.5-1.1,0.5V68
		c1.4,0,2.5-0.5,3.5-1.5C64.1,65.5,64.6,64.3,64.6,62.9z"/>
	<path d="M19.1,31.9c1.7,1.7,3.7,3,5.9,4c2.3,1,4.7,1.5,7.3,1.5c2.6,0,5-0.5,7.3-1.5c2.3-1,4.2-2.3,5.9-4
		s3-3.7,4-5.9c1-2.3,1.5-4.7,1.5-7.3c0-2.6-0.5-5-1.5-7.3c-1-2.3-2.3-4.2-4-5.9s-3.7-3-5.9-4c-2.3-1-4.7-1.5-7.3-1.5
		c-2.6,0-5,0.5-7.3,1.5c-2.3,1-4.2,2.3-5.9,4s-3,3.7-4,5.9c-1,2.3-1.5,4.7-1.5,7.3c0,2.6,0.5,5,1.5,7.3C16,28.3,17.4,30.2,19.1,31.9
		z M18.2,12.8c0.8-1.9,1.9-3.5,3.3-4.9c1.4-1.4,3-2.5,4.9-3.3s3.8-1.2,5.9-1.2c2.1,0,4.1,0.4,5.9,1.2s3.5,1.9,4.9,3.3
		c1.4,1.4,2.5,3,3.3,4.9c0.8,1.9,1.2,3.9,1.2,6c0,2.1-0.4,4.1-1.2,5.9c-0.8,1.9-1.9,3.5-3.3,4.9c-1.4,1.4-3,2.5-4.9,3.3
		S34.4,34,32.3,34c-2.1,0-4.1-0.4-5.9-1.2s-3.5-1.9-4.9-3.3c-1.4-1.4-2.5-3-3.3-4.9c-0.8-1.9-1.2-3.8-1.2-5.9
		C17,16.6,17.4,14.6,18.2,12.8z"/>
	<g>
		<path d="M32.2,49.7c-11.8,0-21.3,9.6-21.3,21.3s9.6,21.3,21.3,21.3s21.3-9.6,21.3-21.3S43.9,49.7,32.2,49.7z
			 M32.2,53.2c9.3,0,16.9,7.1,17.7,16.2c-2.1,0.2-7,0.5-8.5-1.2c0,0-3.4-4-9.3-4c-6,0-9.3,4-9.3,4c-1.6,1.7-6.4,1.4-8.5,1.2
			C15.3,60.3,22.9,53.2,32.2,53.2z M32.2,74.6c-1.9,0-3.5-1.6-3.5-3.5c0-1.9,1.6-3.5,3.5-3.5s3.5,1.6,3.5,3.5
			C35.7,73,34.1,74.6,32.2,74.6z M14.9,75.4h10.9c0,0,3.3,0,3.3,3.9c0,2.6,0,6.8,0,9.2C22.2,87.4,16.6,82.2,14.9,75.4z M35.2,88.6
			c0-2.5,0-6.6,0-9.2c0-3.9,3.3-3.9,3.3-3.9h10.9C47.7,82.2,42.2,87.4,35.2,88.6z"/>
	</g>
</g>
</svg>
