<?xml version="1.0" encoding="utf-8"?>
<!-- Generator: Adobe Illustrator 19.2.0, SVG Export Plug-In . SVG Version: 6.00 Build 0)  -->
<svg version="1.1" id="Layer_1" xmlns="http://www.w3.org/2000/svg" xmlns:xlink="http://www.w3.org/1999/xlink" x="0px" y="0px"
	 viewBox="0 0 82.9 82.7" enable-background="new 0 0 82.9 82.7" xml:space="preserve">
<g>
	<path d="M82.3,33.9C78.7,14.6,62,0,41.7,0C18.9,0,0,18.6,0,41.4c0,18.2,11.6,33.4,27.6,39c4.4,1.6,8.9,2.3,13.8,2.3
		c18.1,0,33.8-11.7,39.4-28c0-0.1,0-0.1,0.1-0.2c0.2-0.5,0.3-1,0.5-1.4c0-0.1,0-0.1,0-0.2c0.4-1.5,0.8-2.9,1-4.5
		c0-0.1,0-0.2,0.1-0.3c0.1-0.4,0.1-0.8,0.2-1.3c0-0.2,0.1-0.4,0.1-0.6c0-0.4,0.1-0.8,0.1-1.2c0-0.2,0-0.4,0-0.6
		c0-0.4,0.1-0.9,0.1-1.3c0-0.1,0-0.2,0-0.2c0-0.5,0-1,0-1.5C82.9,38.8,82.7,36.3,82.3,33.9z M34,3l0.7,12.2c-1.6,0.4-3.1,1-4.6,1.7
		c-0.1,0-0.2,0.1-0.3,0.1c-0.4,0.2-0.8,0.4-1.2,0.6c-0.6,0.4-1.3,0.7-1.9,1.1c0,0,0,0-0.1,0c-0.2,0.1-0.4,0.3-0.6,0.4l0,0
		c-4.9,3.5-8.5,8.6-10.3,14.4l-3.1-0.2L3.6,33C6.6,18.3,19.1,6,34,3z M53.9,78.7l-0.3,0.1c-3.8,1.2-7.5,1.8-11.8,1.8
		C27.5,80.5,14.9,73,8,61.6c-2.4-4.1-4.1-8.8-5-13.7l12.1-0.5c0,0,0,0,0,0l1.9-2.1v0c-0.1-0.3-0.1-0.7-0.2-1
		c-0.1-1.2-0.1-2.4-0.1-3.6c0-1.7,0.3-2.9,0.6-5.4l0.1-0.3c0.7-2.4,1.8-5,3.3-7.4l-0.1,0c2.1-3.2,4.9-5.9,8.1-7.8
		c0.3-0.2,0.7-0.4,1.1-0.6c0.1-0.1,0.2-0.1,0.4-0.2c1.7-0.8,3.5-1.5,5.5-1.9c2.7-0.4,4.3-0.6,6-0.6c1.7,0,3.3,0.2,6,0.6
		c2.6,0.6,4.9,1.6,7.1,2.9c5.6,3.5,9.8,9.1,11.3,15.7c0.3,2.1,0.5,2.8,0.5,4.5c0,0.8,0,1.7-0.1,2.5v2.9l1.7,1.8l11.4,0.5
		C77.3,62.2,66.9,74.2,53.9,78.7z M67.9,33.8c-0.7-2.4-1.7-4.7-3-6.7l-0.1,0c-1.9-3-4.3-5.6-7.2-7.7l0,0c-0.1-0.1-0.3-0.2-0.4-0.3
		c-0.5-0.3-1-0.7-1.5-1c0,0-0.1,0-0.1,0c-2-1.2-4.2-2.1-6.5-2.8L49.8,3c2.8,0.5,5.5,1.4,8,2.6c0,0,0,0,0.1,0
		c1.6,0.7,3.2,1.6,4.7,2.5c0.2,0.1,0.4,0.2,0.5,0.3c0.6,0.4,1.1,0.8,1.7,1.2c0.4,0.3,0.7,0.5,1.1,0.8c0.3,0.2,0.6,0.5,0.9,0.7
		c6.6,5.5,11.4,13.1,13.2,21.8L67.9,33.8z"/>
	<path d="M28.7,49.3c-1.2,0-2.3,0.4-3.2,1.3c-0.9,0.9-1.3,1.9-1.3,3.2c0,1.3,0.4,2.3,1.3,3.2
		c0.9,0.9,1.9,1.3,3.2,1.3c1.3,0,2.3-0.4,3.2-1.3c0.9-0.9,1.3-2,1.3-3.2c0-1.2-0.4-2.3-1.3-3.2C31,49.7,29.9,49.3,28.7,49.3z
		 M29.7,54.9c-0.3,0.3-0.6,0.4-1.1,0.4s-0.8-0.1-1.1-0.4s-0.4-0.6-0.4-1.1s0.1-0.8,0.4-1.1s0.6-0.4,1.1-0.4s0.8,0.1,1.1,0.4
		s0.4,0.6,0.4,1.1S30,54.6,29.7,54.9z"/>
	<path d="M63.4,46c-0.1-0.6-0.3-1.5-0.5-2.6c-0.2-1.1-0.4-2.3-0.7-3.5c-0.3-1.2-0.6-2.4-0.9-3.6
		c-0.3-1.2-0.7-2.1-1-2.8c-0.5-0.9-1.3-1.7-2.5-2.4c-1.2-0.7-2.7-1.3-4.6-1.8c-0.8-0.2-1.6-0.4-2.4-0.5c-0.9-0.1-1.7-0.3-2.7-0.4
		c-0.9-0.1-1.9-0.2-2.9-0.2c-1,0-2-0.1-3-0.1c-1,0-2,0-3,0.1c-1,0-1.9,0.1-2.9,0.2c-0.9,0.1-1.8,0.2-2.7,0.4
		c-0.9,0.1-1.7,0.3-2.4,0.5c-1.9,0.5-3.4,1.1-4.6,1.8c-1.2,0.7-2,1.5-2.5,2.4c-0.4,0.7-0.7,1.6-1,2.8c-0.3,1.2-0.6,2.4-0.9,3.6
		c-0.3,1.2-0.5,2.4-0.7,3.5c-0.2,1.1-0.4,2-0.5,2.6c-1,0.7-1.8,1.6-2.3,2.6c-0.5,1.1-0.8,2.3-0.8,3.7v7.6c0,1,0.3,1.9,0.9,2.6
		c0.6,0.8,1.3,1.3,2.2,1.6v3.3c0,0.8,0.3,1.5,0.9,2.1c0.6,0.6,1.3,0.9,2.2,0.9h3c0.8,0,1.5-0.3,2.1-0.9c0.6-0.6,0.9-1.3,0.9-2.1v-3
		h24.2v3c0,0.8,0.3,1.5,0.9,2.1c0.6,0.6,1.3,0.9,2.1,0.9h3c0.8,0,1.6-0.3,2.2-0.9c0.6-0.6,0.9-1.3,0.9-2.1v-3.3
		c0.9-0.3,1.6-0.9,2.2-1.6c0.6-0.8,0.9-1.7,0.9-2.6v-7.6c0-1.4-0.3-2.6-0.8-3.7C65.2,47.6,64.4,46.7,63.4,46z M25.1,41.8
		c0.2-0.9,0.4-1.9,0.6-2.7c0.2-0.9,0.4-1.7,0.7-2.5c0.2-0.7,0.4-1.3,0.7-1.8c0.2-0.4,0.7-0.9,1.5-1.3c0.8-0.4,1.9-0.8,3.2-1.2
		s2.9-0.6,4.6-0.9c1.8-0.2,3.8-0.3,6-0.3s4.2,0.1,6,0.3c1.8,0.2,3.3,0.5,4.6,0.9s2.4,0.8,3.2,1.2c0.8,0.4,1.3,0.9,1.5,1.3
		c0.2,0.5,0.4,1.1,0.7,1.8c0.2,0.7,0.4,1.6,0.7,2.5c0.2,0.9,0.4,1.8,0.6,2.7c0.2,0.9,0.4,1.8,0.5,2.6c-0.2,0-0.3-0.1-0.5-0.1
		c-0.1,0-0.3-0.1-0.5-0.1c-0.4-0.1-0.8-0.2-1.3-0.3c-0.4-0.1-0.9-0.1-1.4-0.2l-8.8-6.3c-0.3-0.3-0.7-0.3-1.1-0.3
		c-0.4,0.1-0.7,0.3-1,0.6c-0.2,0.4-0.3,0.7-0.3,1.1c0.1,0.4,0.3,0.7,0.6,1l4.7,3.4c-1.3,0-2.6-0.1-4-0.1c-1.4,0-2.9,0-4.4,0
		c-0.2,0-0.4,0-0.5,0s-0.4,0-0.5,0l-8.7-5.8c-0.4-0.2-0.7-0.3-1.1-0.2c-0.4,0.1-0.7,0.3-1,0.6c-0.2,0.3-0.3,0.7-0.2,1.1
		c0.1,0.4,0.3,0.7,0.6,1l5,3.3c-1,0-2,0-3,0.1c-0.9,0-1.9,0.1-2.7,0.2c-0.9,0.1-1.7,0.2-2.5,0.3s-1.5,0.3-2.2,0.4
		c-0.2,0-0.3,0.1-0.5,0.1c-0.1,0-0.3,0.1-0.5,0.1C24.7,43.6,24.9,42.8,25.1,41.8z M27.2,67.4h-3v-3h3V67.4z M60.4,67.4h-3v-3h3V67.4
		z M63.5,59.9c0,0.4-0.1,0.8-0.4,1.1s-0.6,0.4-1.1,0.4H22.6c-0.4,0-0.8-0.1-1.1-0.4s-0.4-0.6-0.4-1.1v-7.6c0-1.4,0.4-2.5,1.2-3.3
		c0.8-0.8,2.1-1.4,3.9-1.8c0.9-0.2,2-0.4,3.2-0.5c1.2-0.1,2.5-0.2,3.8-0.3c1.4-0.1,2.8-0.1,4.3-0.1c1.5,0,3.1,0,4.8,0s3.2,0,4.8,0
		c1.5,0,3,0,4.3,0.1c1.4,0.1,2.6,0.1,3.8,0.3c1.2,0.1,2.2,0.3,3.2,0.5c1.8,0.4,3.1,1,3.9,1.8c0.8,0.8,1.2,1.9,1.2,3.3V59.9z"/>
	<path d="M55.9,49.3c-1.3,0-2.3,0.4-3.2,1.3c-0.9,0.9-1.3,1.9-1.3,3.2c0,1.3,0.4,2.3,1.3,3.2c0.9,0.9,2,1.3,3.2,1.3
		c1.2,0,2.3-0.4,3.2-1.3c0.9-0.9,1.3-2,1.3-3.2c0-1.2-0.4-2.3-1.3-3.2C58.2,49.7,57.2,49.3,55.9,49.3z M57,54.9
		c-0.3,0.3-0.6,0.4-1.1,0.4s-0.8-0.1-1.1-0.4s-0.4-0.6-0.4-1.1s0.1-0.8,0.4-1.1s0.6-0.4,1.1-0.4s0.8,0.1,1.1,0.4s0.4,0.6,0.4,1.1
		S57.3,54.6,57,54.9z"/>
</g>
</svg>
