<?xml version="1.0" encoding="utf-8"?>
<!-- Generator: Adobe Illustrator 19.2.0, SVG Export Plug-In . SVG Version: 6.00 Build 0)  -->
<svg version="1.1" id="Layer_1" xmlns="http://www.w3.org/2000/svg" xmlns:xlink="http://www.w3.org/1999/xlink" x="0px" y="0px"
	 viewBox="0 0 70.4 61.1" enable-background="new 0 0 70.4 61.1" xml:space="preserve">
<g>
	<path d="M69.6,23.1c-0.6-1.2-1.5-2.2-2.6-3c-0.1-0.7-0.3-1.7-0.5-2.9c-0.2-1.2-0.5-2.6-0.8-4s-0.6-2.7-1-4.1
		c-0.4-1.3-0.7-2.3-1.1-3.1c-0.5-1-1.4-2-2.8-2.7c-1.3-0.8-3-1.4-5.1-2c-0.9-0.2-1.8-0.4-2.7-0.6s-2-0.3-3-0.4
		c-1-0.1-2.1-0.2-3.2-0.2C45.5,0,44.4,0,43.3,0S41,0,39.9,0.1c-1.1,0.1-2.2,0.1-3.2,0.2c-1,0.1-2,0.2-3,0.4s-1.9,0.4-2.7,0.6
		c-2.1,0.5-3.8,1.2-5.1,2C24.5,4.1,23.5,5,23,6c-0.4,0.8-0.8,1.8-1.1,3.1c-0.4,1.3-0.7,2.7-1,4.1s-0.6,2.7-0.8,4
		c-0.2,1.3-0.4,2.2-0.5,2.9c-1.2,0.8-2,1.8-2.6,2.9h4.4c0.9-0.7,2.1-1.2,3.8-1.6c1.1-0.3,2.3-0.5,3.6-0.6s2.8-0.2,4.3-0.3
		c1.5-0.1,3.1-0.1,4.9-0.1c1.7,0,3.5,0,5.4,0s3.6,0,5.4,0c1.7,0,3.3,0,4.9,0.1s3,0.2,4.3,0.3s2.5,0.3,3.6,0.6c2,0.5,3.5,1.2,4.4,2.1
		s1.3,2.1,1.3,3.7v8.5c0,0.5-0.2,0.9-0.5,1.2s-0.7,0.5-1.2,0.5H36.6v3.4h20.3v3.4c0,0.9,0.3,1.7,1,2.4s1.5,1,2.4,1h3.4
		c1,0,1.8-0.3,2.4-1s1-1.5,1-2.4v-3.7c1-0.4,1.8-1,2.4-1.8c0.6-0.9,1-1.9,1-3v-8.5C70.4,25.6,70.2,24.2,69.6,23.1z M62.7,18.2
		c-0.2,0-0.3-0.1-0.5-0.1c-0.5-0.1-0.9-0.2-1.4-0.3c-0.5-0.1-1-0.2-1.5-0.2l-9.9-7c-0.4-0.3-0.8-0.4-1.3-0.3
		c-0.5,0.1-0.8,0.3-1.1,0.7c-0.3,0.4-0.4,0.8-0.3,1.3c0.1,0.5,0.3,0.8,0.7,1.1l5.3,3.8c-1.4,0-2.9-0.1-4.5-0.1c-1.6,0-3.2,0-4.9,0
		c-0.2,0-0.4,0-0.6,0s-0.4,0-0.6,0l-9.8-6.5c-0.4-0.3-0.8-0.4-1.3-0.3c-0.5,0.1-0.8,0.3-1.1,0.7c-0.3,0.4-0.3,0.8-0.2,1.3
		s0.3,0.8,0.7,1.1L36,17c-1.2,0-2.3,0.1-3.3,0.1c-1.1,0-2.1,0.1-3.1,0.2c-1,0.1-1.9,0.2-2.8,0.3s-1.7,0.3-2.5,0.5
		c-0.2,0-0.3,0.1-0.5,0.1c-0.2,0-0.3,0.1-0.5,0.1c0.2-0.9,0.4-1.9,0.6-3s0.4-2.1,0.7-3.1s0.5-1.9,0.7-2.8c0.3-0.8,0.5-1.5,0.7-2
		c0.2-0.5,0.8-1,1.7-1.5s2.1-0.9,3.6-1.3c1.5-0.4,3.2-0.7,5.2-1c2-0.2,4.2-0.4,6.7-0.4s4.7,0.1,6.7,0.4c2,0.2,3.7,0.6,5.2,1
		s2.7,0.8,3.6,1.3s1.5,1,1.7,1.5c0.2,0.5,0.5,1.2,0.7,2c0.3,0.8,0.5,1.8,0.7,2.8s0.5,2,0.7,3.1s0.4,2,0.6,3
		C63,18.3,62.8,18.3,62.7,18.2z M63.6,44.2h-3.4v-3.4h3.4V44.2z"/>
	<path d="M24.4,32.5c1,1,2.2,1.5,3.6,1.5c1.4,0,2.6-0.5,3.6-1.5c1-1,1.5-2.2,1.5-3.6c0-1.4-0.5-2.6-1.5-3.6
		c-1-1-2.2-1.5-3.6-1.5c-1.4,0-2.6,0.5-3.6,1.5s-1.5,2.2-1.5,3.6C22.9,30.3,23.4,31.5,24.4,32.5z M26.8,27.7
		c0.3-0.3,0.7-0.5,1.2-0.5s0.9,0.2,1.2,0.5s0.5,0.7,0.5,1.2s-0.2,0.9-0.5,1.2s-0.7,0.5-1.2,0.5s-0.9-0.2-1.2-0.5s-0.5-0.7-0.5-1.2
		S26.4,28,26.8,27.7z"/>
	<path d="M58.6,34c1.4,0,2.6-0.5,3.6-1.5s1.5-2.2,1.5-3.6c0-1.4-0.5-2.6-1.5-3.6s-2.2-1.5-3.6-1.5
		c-1.4,0-2.6,0.5-3.6,1.5s-1.5,2.2-1.5,3.6c0,1.4,0.5,2.6,1.5,3.6S57.1,34,58.6,34z M57.4,27.7c0.3-0.3,0.7-0.5,1.2-0.5
		s0.9,0.2,1.2,0.5s0.5,0.7,0.5,1.2s-0.2,0.9-0.5,1.2s-0.7,0.5-1.2,0.5s-0.9-0.2-1.2-0.5s-0.5-0.7-0.5-1.2S57,28,57.4,27.7z"/>
	<polygon points="31.7,42 19.1,42 19.1,29.4 12.6,29.4 12.6,42 0,42 0,48.5 12.6,48.5 12.6,61.1 19.1,61.1 
		19.1,48.5 31.7,48.5 	"/>
</g>
</svg>
