<?xml version="1.0" encoding="utf-8"?>
<!-- Generator: Adobe Illustrator 19.2.0, SVG Export Plug-In . SVG Version: 6.00 Build 0)  -->
<svg version="1.1" id="Layer_1" xmlns="http://www.w3.org/2000/svg" xmlns:xlink="http://www.w3.org/1999/xlink" x="0px" y="0px"
	 viewBox="0 0 73.1 55.2" enable-background="new 0 0 73.1 55.2" xml:space="preserve">
<g>
	<path d="M72.2,23.1c-0.6-1.2-1.5-2.2-2.6-3c-0.1-0.7-0.3-1.7-0.5-2.9c-0.2-1.2-0.5-2.6-0.8-4s-0.6-2.7-1-4.1
		c-0.4-1.3-0.7-2.3-1.1-3.1c-0.5-1-1.4-2-2.8-2.7c-1.3-0.8-3-1.4-5.1-2c-0.9-0.2-1.8-0.4-2.7-0.6s-2-0.3-3-0.4
		c-1-0.1-2.1-0.2-3.2-0.2C48.1,0,47,0,45.9,0s-2.2,0-3.4,0.1c-1.1,0.1-2.2,0.1-3.2,0.2c-1,0.1-2,0.2-3,0.4s-1.9,0.4-2.7,0.6
		c-2.1,0.5-3.8,1.2-5.1,2C27.1,4.1,26.2,5,25.7,6c-0.4,0.8-0.8,1.8-1.1,3l2.5,3.9c0.1-0.2,0.1-0.5,0.2-0.7c0.2-1,0.5-1.9,0.7-2.8
		c0.3-0.8,0.5-1.5,0.7-2c0.2-0.5,0.8-1,1.7-1.5s2.1-0.9,3.6-1.3s3.2-0.7,5.2-1c2-0.2,4.2-0.4,6.7-0.4s4.7,0.1,6.7,0.4
		c2,0.2,3.7,0.6,5.2,1s2.7,0.8,3.6,1.3s1.5,1,1.7,1.5c0.2,0.5,0.5,1.2,0.7,2c0.3,0.8,0.5,1.8,0.7,2.8s0.5,2,0.7,3.1s0.4,2,0.6,3
		c-0.2,0-0.3-0.1-0.5-0.1c-0.2,0-0.3-0.1-0.5-0.1c-0.5-0.1-0.9-0.2-1.4-0.3c-0.5-0.1-1-0.2-1.5-0.2l-9.9-7c-0.4-0.3-0.8-0.4-1.3-0.3
		c-0.5,0.1-0.8,0.3-1.1,0.7c-0.3,0.4-0.4,0.8-0.3,1.3c0.1,0.5,0.3,0.8,0.7,1.1l5.3,3.8c-1.4,0-2.9-0.1-4.5-0.1c-1.6,0-3.2,0-4.9,0
		c-0.2,0-0.4,0-0.6,0s-0.4,0-0.6,0l-9.8-6.5c-0.4-0.3-0.8-0.4-1.3-0.3c-0.5,0.1-0.8,0.3-1.1,0.7c-0.3,0.4-0.3,0.8-0.2,1.3
		s0.3,0.8,0.7,1.1l5.6,3.7c-1.2,0-2.3,0.1-3.3,0.1c-1.1,0-2.1,0.1-3.1,0.2c-0.8,0.1-1.5,0.1-2.3,0.2l2.1,3.2
		c1.1-0.1,2.3-0.2,3.6-0.2c1.5-0.1,3.1-0.1,4.9-0.1c1.7,0,3.5,0,5.4,0s3.6,0,5.4,0c1.7,0,3.3,0,4.9,0.1s3,0.2,4.3,0.3
		s2.5,0.3,3.6,0.6c2,0.5,3.5,1.2,4.4,2.1s1.3,2.1,1.3,3.7v8.5c0,0.5-0.2,0.9-0.5,1.2s-0.7,0.5-1.2,0.5H42.7l2.2,3.4h14.6v3.4
		c0,0.9,0.3,1.7,1,2.4s1.5,1,2.4,1h3.4c1,0,1.8-0.3,2.4-1s1-1.5,1-2.4v-3.7c1-0.4,1.8-1,2.4-1.8c0.6-0.9,1-1.9,1-3v-8.5
		C73.1,25.6,72.8,24.2,72.2,23.1z M66.3,44.2h-3.4v-3.4h3.4V44.2z"/>
	<path d="M61.2,34c1.4,0,2.6-0.5,3.6-1.5s1.5-2.2,1.5-3.6c0-1.4-0.5-2.6-1.5-3.6s-2.2-1.5-3.6-1.5
		c-1.4,0-2.6,0.5-3.6,1.5s-1.5,2.2-1.5,3.6c0,1.4,0.5,2.6,1.5,3.6S59.8,34,61.2,34z M60,27.7c0.3-0.3,0.7-0.5,1.2-0.5
		s0.9,0.2,1.2,0.5s0.5,0.7,0.5,1.2s-0.2,0.9-0.5,1.2s-0.7,0.5-1.2,0.5s-0.9-0.2-1.2-0.5s-0.5-0.7-0.5-1.2S59.7,28,60,27.7z"/>
	<g>
		<path d="M23,27.7l13.8,21.5H9.2L23,27.7 M23,18.4c-0.7,0-1.4,0.3-1.8,1L0.4,51.8c-0.9,1.5,0.1,3.4,1.8,3.4h41.5
			c1.7,0,2.8-1.9,1.8-3.4L24.8,19.4C24.4,18.8,23.7,18.4,23,18.4L23,18.4z"/>
	</g>
	<path d="M23,46.5c-1.1,0-2-0.9-2-2v-9.2c0-1.1,0.9-2,2-2s2,0.9,2,2v9.2C25,45.6,24.1,46.5,23,46.5z"/>
</g>
</svg>
