<?xml version="1.0" encoding="utf-8"?>
<!-- Generator: Adobe Illustrator 21.0.2, SVG Export Plug-In . SVG Version: 6.00 Build 0)  -->
<svg version="1.1" id="Layer_1" xmlns="http://www.w3.org/2000/svg" xmlns:xlink="http://www.w3.org/1999/xlink" x="0px" y="0px"
	 viewBox="0 0 43.3 41.3" style="enable-background:new 0 0 43.3 41.3;" xml:space="preserve">
<g>
	<path class="st0" d="M33.5,10.1h2c1.7,0,2.7-1.2,2.7-2.6c0-1.4-1-2.6-2.7-2.6h-3.8v8h1.7V10.1z M33.5,6.4h1.8
		c0.7,0,1.2,0.4,1.2,1.1c0,0.7-0.5,1.1-1.2,1.1h-1.8V6.4z"/>
	<path class="st0" d="M34.5,0c-4.9,0-8.9,4-8.9,8.9v0.2l2,0.3V9.1C27.6,5,30.5,2,34.5,2c3.8,0,6.9,3.1,6.9,6.9
		c0,1.9-0.7,3.5-1.9,4.8c-1.3,1.4-3.3,2.1-5.4,2.1h-0.3l0.5,2h0.2c4.9,0,8.9-4,8.9-8.9S39.4,0,34.5,0z"/>
	<path class="st0" d="M27.5,25.9c-1.8,0-3.3,1.5-3.3,3.3c0,1.8,1.5,3.3,3.3,3.3c1.8,0,3.3-1.5,3.3-3.3
		C30.8,27.4,29.3,25.9,27.5,25.9z M27.5,30.3c-0.6,0-1.1-0.5-1.1-1.1c0-0.3,0.1-0.6,0.3-0.8c0.2-0.2,0.5-0.3,0.8-0.3
		c0.6,0,1.1,0.5,1.1,1.1C28.6,29.8,28.2,30.3,27.5,30.3z"/>
	<path class="st0" d="M33,23.5c-0.1-0.4-0.2-1.1-0.3-1.9c-0.2-0.8-0.3-1.7-0.5-2.6c-0.2-0.9-0.4-1.8-0.6-2.6c-0.2-0.7-0.4-1.4-0.7-2
		c-0.4-0.7-1-1.3-1.8-1.7c-1-0.6-2.2-1-3.3-1.3c-0.6-0.1-1.2-0.3-1.8-0.4c-0.6-0.1-1.3-0.2-1.9-0.3c-0.7-0.1-1.4-0.1-2.1-0.2
		c-0.7,0-1.4-0.1-2.2-0.1c-0.7,0-1.5,0-2.2,0.1c-0.7,0-1.4,0.1-2.1,0.2c-0.7,0.1-1.3,0.2-1.9,0.3c-0.6,0.1-1.2,0.2-1.8,0.4
		c-1.2,0.3-2.3,0.7-3.3,1.3c-0.7,0.4-1.4,1-1.8,1.7c-0.3,0.6-0.6,1.3-0.8,2c-0.2,0.8-0.5,1.7-0.6,2.6c-0.2,0.9-0.4,1.8-0.5,2.6
		c-0.1,0.8-0.3,1.5-0.3,1.9C1.6,24,1,24.7,0.6,25.4C0.2,26.3,0,27.2,0,28.1v5.5c0,0.7,0.2,1.4,0.6,1.9c0.4,0.5,0.9,1,1.5,1.2v2.4
		c0,0.6,0.2,1.1,0.6,1.5c0.4,0.4,1,0.7,1.6,0.6h2.2c1.2,0,2.2-1,2.2-2.2V37h17.6v2.2c0,1.2,1,2.2,2.2,2.2h2.2c0.6,0,1.2-0.2,1.6-0.6
		c0.4-0.4,0.7-1,0.6-1.5v-2.4c0.6-0.2,1.2-0.6,1.5-1.2c0.4-0.6,0.7-1.2,0.6-1.9v-5.5c0-0.9-0.2-1.8-0.6-2.7
		C34.3,24.7,33.7,24,33,23.5z M5.1,20.5c0.1-0.7,0.3-1.4,0.4-2s0.3-1.2,0.5-1.8c0.1-0.4,0.3-0.9,0.5-1.3c0.3-0.4,0.7-0.8,1.1-1
		c0.7-0.4,1.5-0.7,2.3-0.9c1.1-0.3,2.2-0.5,3.4-0.6c1.4-0.2,2.9-0.2,4.3-0.2c1.4,0,2.9,0.1,4.3,0.2c1.1,0.1,2.3,0.4,3.4,0.6
		c0.8,0.2,1.6,0.5,2.3,0.9c0.5,0.2,0.8,0.5,1.1,1c0.2,0.4,0.4,0.9,0.5,1.3c0.2,0.5,0.3,1.1,0.5,1.7s0.3,1.3,0.4,2l0.4,1.9l-0.3-0.1
		l-0.3-0.1c-0.3-0.1-0.6-0.1-0.9-0.2c-0.3-0.1-0.6-0.1-1-0.1l-6.4-4.5c-0.2-0.2-0.5-0.3-0.8-0.2c-0.3,0-0.5,0.2-0.7,0.4
		c-0.3,0.5-0.2,1.2,0.3,1.5l3.4,2.5c-0.9,0-1.9-0.1-2.9-0.1h-3.2h-0.8l-6.3-4.2c-0.2-0.2-0.5-0.2-0.8-0.2c-0.3,0.1-0.6,0.2-0.7,0.5
		c-0.1,0.2-0.2,0.5-0.1,0.8c0.1,0.3,0.2,0.5,0.5,0.7l3.6,2.4c-0.8,0-1.5,0.1-2.2,0.1c-0.7,0-1.3,0.1-2,0.1c-0.6,0.1-1.2,0.1-1.8,0.2
		c-0.6,0.1-1.1,0.2-1.6,0.3L5,22.4l-0.3,0.1C4.8,21.8,4.9,21.2,5.1,20.5z M4.4,39.1V37h2.2v2.2l0,0H4.4z M30.8,39.1h-2.2V37h2.2
		V39.1z M33,33.6c0,0.6-0.5,1.1-1.1,1.1H3.3c-0.6,0-1.1-0.5-1.1-1.1v-5.5c-0.1-0.9,0.3-1.8,0.9-2.4c0.8-0.7,1.8-1.2,2.8-1.3
		c0.8-0.2,1.5-0.3,2.3-0.4c0.9-0.1,1.8-0.1,2.8-0.2s2-0.1,3.1-0.1h3.5h3.5c1.1,0,2.2,0,3.1,0.1c1,0,1.9,0.1,2.8,0.2
		c0.8,0.1,1.6,0.2,2.3,0.4c1,0.2,2,0.7,2.8,1.3c0.6,0.6,0.9,1.5,0.9,2.4V33.6z"/>
	<path class="st0" d="M7.7,25.9c-0.9,0-1.7,0.3-2.3,1c-1.3,1.3-1.3,3.4,0,4.7c0,0,0,0,0,0c0.6,0.6,1.5,1,2.3,1
		c1.8,0,3.3-1.5,3.3-3.3c0,0,0,0,0,0c0-0.9-0.3-1.7-1-2.3C9.4,26.3,8.6,25.9,7.7,25.9z M7.7,30.3c-0.6,0-1.1-0.5-1.1-1.1
		c0-0.3,0.1-0.6,0.3-0.8c0.2-0.2,0.5-0.3,0.8-0.3l0,0c0.6,0,1.1,0.5,1.1,1.1C8.8,29.8,8.3,30.3,7.7,30.3z"/>
</g>
</svg>
